#define X_width 16
#define X_height 16
static unsigned char X_bits[] = {
   0x00, 0x00, 0xfc, 0x3f, 0x04, 0x20, 0x04, 0x20, 0x04, 0x20, 0x04, 0x20,
   0x04, 0x20, 0x04, 0x20, 0x04, 0x20, 0x04, 0x20, 0x04, 0x20, 0x04, 0x20,
   0x04, 0x2c, 0x04, 0x2c, 0x04, 0x20, 0xfc, 0x3f};
