#define X_width 16
#define X_height 16
static unsigned char X_bits[] = {
   0x00, 0x00, 0xfc, 0x3f, 0x04, 0x20, 0x04, 0x20, 0x04, 0x20, 0x04, 0x28,
   0x04, 0x24, 0x04, 0x22, 0x04, 0x20, 0x44, 0x20, 0x24, 0x20, 0x14, 0x20,
   0x04, 0x20, 0x04, 0x20, 0x04, 0x20, 0xfc, 0x3f};
