#define X_width 16
#define X_height 16
static unsigned char X_bits[] = {
   0x00, 0x00, 0x00, 0x00, 0x00, 0x00, 0x3e, 0x04, 0x02, 0x06, 0x02, 0x05,
   0x02, 0x04, 0x3e, 0x04, 0x02, 0x04, 0x02, 0x04, 0x02, 0x04, 0x02, 0x04,
   0x02, 0x1f, 0x00, 0x00, 0x00, 0x00, 0x00, 0x00};
