#define X_width 16
#define X_height 16
static unsigned char X_bits[] = {
   0x00, 0x00, 0x00, 0x00, 0x00, 0x00, 0x3e, 0x0c, 0x02, 0x12, 0x02, 0x21,
   0x02, 0x20, 0x3e, 0x10, 0x02, 0x08, 0x02, 0x04, 0x02, 0x02, 0x02, 0x01,
   0x02, 0x3f, 0x00, 0x00, 0x00, 0x00, 0x00, 0x00};
