#define X_width 16
#define X_height 16
static unsigned char X_bits[] = {
   0x00, 0x00, 0x00, 0x00, 0x00, 0x00, 0x3e, 0x08, 0x02, 0x0c, 0x02, 0x0a,
   0x02, 0x09, 0xbe, 0x08, 0x82, 0x7f, 0x02, 0x08, 0x02, 0x08, 0x02, 0x08,
   0x02, 0x08, 0x00, 0x00, 0x00, 0x00, 0x00, 0x00};
