#define X_width 16
#define X_height 16
static unsigned char X_bits[] = {
   0x00, 0x00, 0x00, 0x00, 0x00, 0x00, 0xbe, 0x1f, 0x82, 0x00, 0x82, 0x00,
   0x82, 0x00, 0xbe, 0x07, 0x02, 0x08, 0x02, 0x10, 0x02, 0x10, 0x02, 0x08,
   0x82, 0x07, 0x00, 0x00, 0x00, 0x00, 0x00, 0x00};
