#define X_width 16
#define X_height 16
static unsigned char X_bits[] = {
   0x00, 0x00, 0x00, 0x00, 0x00, 0x00, 0x3e, 0x1e, 0x02, 0x21, 0x02, 0x01,
   0x02, 0x01, 0x3e, 0x0f, 0x02, 0x11, 0x02, 0x21, 0x02, 0x21, 0x02, 0x12,
   0x02, 0x0c, 0x00, 0x00, 0x00, 0x00, 0x00, 0x00};
