#define X_width 16
#define X_height 16
static unsigned char X_bits[] = {
   0x00, 0x00, 0x00, 0x00, 0x00, 0x00, 0x3e, 0x0c, 0x02, 0x12, 0x02, 0x21,
   0x02, 0x21, 0x3e, 0x1a, 0x02, 0x16, 0x02, 0x21, 0x02, 0x21, 0x02, 0x12,
   0x02, 0x0c, 0x00, 0x00, 0x00, 0x00, 0x00, 0x00};
