#define X_width 16
#define X_height 16
static unsigned char X_bits[] = {
   0x00, 0x00, 0x00, 0x00, 0x00, 0x00, 0x8f, 0x20, 0xc1, 0x50, 0xa1, 0x88,
   0x81, 0x88, 0x8f, 0x88, 0x81, 0x88, 0x81, 0x88, 0x81, 0x88, 0x81, 0x50,
   0xe1, 0x23, 0x00, 0x00, 0x00, 0x00, 0x00, 0x00};
