#define X_width 16
#define X_height 16
static unsigned char X_bits[] = {
   0x00, 0x00, 0x00, 0x00, 0x00, 0x00, 0x8f, 0x20, 0xc1, 0x30, 0xa1, 0x28,
   0x81, 0x20, 0x8f, 0x20, 0x81, 0x20, 0x81, 0x20, 0x81, 0x20, 0x81, 0x20,
   0xe1, 0xfb, 0x00, 0x00, 0x00, 0x00, 0x00, 0x00};
