#define X_width 16
#define X_height 16
static unsigned char X_bits[] = {
   0x00, 0x00, 0x00, 0x00, 0x00, 0x00, 0x8f, 0x70, 0xc1, 0x88, 0xa1, 0x80,
   0x81, 0x80, 0x8f, 0x40, 0x81, 0x20, 0x81, 0x10, 0x81, 0x08, 0x81, 0x08,
   0xe1, 0xfb, 0x00, 0x00, 0x00, 0x00, 0x00, 0x00};
