#define X_width 16
#define X_height 16
static unsigned char X_bits[] = {
   0x00, 0x00, 0x00, 0x00, 0x00, 0x00, 0x8f, 0x70, 0xc1, 0x88, 0xa1, 0x80,
   0x81, 0x80, 0x8f, 0x70, 0x81, 0x80, 0x81, 0x80, 0x81, 0x80, 0x81, 0x88,
   0xe1, 0x73, 0x00, 0x00, 0x00, 0x00, 0x00, 0x00};
