#define X_width 16
#define X_height 16
static unsigned char X_bits[] = {
   0x00, 0x00, 0x00, 0x00, 0x00, 0x00, 0x00, 0x20, 0x00, 0x20, 0x00, 0x20,
   0x00, 0x20, 0x00, 0x20, 0x08, 0x20, 0x04, 0x20, 0x02, 0x20, 0xff, 0x1f,
   0x02, 0x00, 0x04, 0x00, 0x08, 0x00, 0x00, 0x00};
