#define X_width 16
#define X_height 16
static unsigned char X_bits[] = {
   0x00, 0x00, 0x00, 0x00, 0x80, 0x01, 0x40, 0x02, 0x20, 0x04, 0x10, 0x08,
   0x08, 0x10, 0x04, 0x20, 0x3e, 0x7c, 0x20, 0x04, 0x20, 0x04, 0x20, 0x04,
   0x20, 0x04, 0xe0, 0x07, 0x00, 0x00, 0x00, 0x00};
