#define X_width 16
#define X_height 16
static unsigned char X_bits[] = {
   0x00, 0x00, 0x00, 0x00, 0x00, 0x00, 0x00, 0x00, 0xee, 0x26, 0x42, 0x2a,
   0x42, 0x2a, 0x42, 0x2a, 0x42, 0x26, 0x42, 0x2a, 0x42, 0x2a, 0x4e, 0xea,
   0x00, 0x00, 0x00, 0x00, 0x00, 0x00, 0x00, 0x00};
