#define X_width 16
#define X_height 16
static unsigned char X_bits[] = {
   0xc0, 0x03, 0x30, 0x0c, 0x0c, 0x30, 0xfc, 0x3f, 0x0a, 0x60, 0x0a, 0x50,
   0x11, 0x90, 0x11, 0x88, 0x21, 0x88, 0x21, 0x84, 0x22, 0x44, 0x42, 0x42,
   0x44, 0x22, 0x8c, 0x31, 0xb0, 0x0c, 0xc0, 0x03};
