#define X_width 16
#define X_height 16
static unsigned char X_bits[] = {
   0x00, 0x00, 0x80, 0x7f, 0x80, 0x7f, 0x00, 0x78, 0x00, 0x7c, 0x00, 0x6e,
   0x00, 0x67, 0x80, 0x63, 0xc0, 0x61, 0xe0, 0x00, 0x70, 0x00, 0x38, 0x00,
   0x1c, 0x00, 0x0e, 0x00, 0x06, 0x00, 0x00, 0x00};
