#define X_width 16
#define X_height 16
static unsigned char X_bits[] = {
   0x00, 0x00, 0x00, 0x60, 0x00, 0x70, 0x00, 0x38, 0x00, 0x1c, 0x00, 0x0e,
   0x00, 0x07, 0x86, 0x03, 0xc6, 0x01, 0xe6, 0x00, 0x76, 0x00, 0x3e, 0x00,
   0x1e, 0x00, 0xfe, 0x01, 0xfe, 0x01, 0x00, 0x00};
