#define X_width 16
#define X_height 16
static unsigned char X_bits[] = {
   0x00, 0x00, 0x00, 0x00, 0x00, 0x00, 0x20, 0x00, 0x30, 0x00, 0x18, 0x00,
   0x0c, 0x00, 0xfe, 0x7f, 0xfe, 0x7f, 0x0c, 0x00, 0x18, 0x00, 0x30, 0x00,
   0x20, 0x00, 0x00, 0x00, 0x00, 0x00, 0x00, 0x00};
