#define X_width 16
#define X_height 16
static unsigned char X_bits[] = {
   0x00, 0x00, 0x80, 0x01, 0x80, 0x01, 0x80, 0x01, 0x80, 0x01, 0x80, 0x01,
   0x80, 0x01, 0x80, 0x01, 0x80, 0x01, 0x80, 0x01, 0x98, 0x19, 0xb0, 0x0d,
   0xe0, 0x07, 0xc0, 0x03, 0x80, 0x01, 0x00, 0x00};
