#define X_width 16
#define X_height 16
static unsigned char X_bits[] = {
   0x00, 0x00, 0x00, 0x00, 0x00, 0x00, 0xfc, 0x0f, 0x0f, 0x3c, 0x0f, 0x3c,
   0x0f, 0x3c, 0xfc, 0x3f, 0x00, 0x3c, 0x00, 0x3c, 0x00, 0x0f, 0xfc, 0x03,
   0x00, 0x00, 0x00, 0x00, 0x00, 0x00, 0x00, 0x00};
