#define X_width 16
#define X_height 16
static unsigned char X_bits[] = {
   0x00, 0x00, 0x00, 0x00, 0x00, 0x00, 0xff, 0x00, 0x3c, 0x00, 0x3c, 0x00,
   0x3c, 0x00, 0x3c, 0x00, 0x3c, 0x00, 0x3c, 0x30, 0x3c, 0x3c, 0xff, 0x3f,
   0x00, 0x00, 0x00, 0x00, 0x00, 0x00, 0x00, 0x00};
