#define X_width 16
#define X_height 16
static unsigned char X_bits[] = {
   0x00, 0x00, 0x00, 0x00, 0x00, 0x00, 0x0f, 0x3c, 0x3f, 0x3f, 0xff, 0x3f,
   0xff, 0x3f, 0xcf, 0x3c, 0x0f, 0x3c, 0x0f, 0x3c, 0x0f, 0x3c, 0x0f, 0x3c,
   0x00, 0x00, 0x00, 0x00, 0x00, 0x00, 0x00, 0x00};
