#define X_width 16
#define X_height 16
static unsigned char X_bits[] = {
   0x00, 0x00, 0x00, 0x00, 0xe0, 0x7f, 0x10, 0x40, 0x48, 0x50, 0x84, 0x48,
   0x02, 0x45, 0x01, 0x42, 0x02, 0x45, 0x84, 0x48, 0x48, 0x50, 0x10, 0x40,
   0xe0, 0x7f, 0x00, 0x00, 0x00, 0x00, 0x00, 0x00};
