#define X_width 16
#define X_height 16
static unsigned char X_bits[] = {
   0x00, 0x00, 0x00, 0x00, 0x00, 0x00, 0x0f, 0x3c, 0x0f, 0x3c, 0x0f, 0x3c,
   0x0f, 0x3c, 0x0f, 0x3c, 0x0f, 0x3c, 0x3c, 0x0f, 0xf0, 0x03, 0xc0, 0x00,
   0x00, 0x00, 0x00, 0x00, 0x00, 0x00, 0x00, 0x00};
