#define X_width 16
#define X_height 16
static unsigned char X_bits[] = {
   0x00, 0x00, 0x42, 0x00, 0x22, 0x00, 0x12, 0x00, 0xfa, 0x7f, 0x12, 0x00,
   0x22, 0x00, 0x42, 0x00, 0x00, 0x42, 0x00, 0x44, 0x00, 0x48, 0xfc, 0x5f,
   0x00, 0x48, 0x00, 0x44, 0x00, 0x42, 0x00, 0x00};
